<svg version="1.1" id="Layer_1" xmlns="http://www.w3.org/2000/svg" xmlns:xlink="http://www.w3.org/1999/xlink" x="0px" y="0px"
	 width="100%" viewBox="0 0 670 112" enable-background="new 0 0 670 112" xml:space="preserve">
<path fill="#070707" opacity="1.000000" stroke="none" 
	d="
M506.000000,113.000000 
	C337.333374,113.000000 169.166763,113.000000 1.000113,113.000000 
	C1.000075,75.666725 1.000075,38.333454 1.000038,1.000138 
	C224.333206,1.000092 447.666412,1.000092 670.999756,1.000046 
	C670.999817,38.333195 670.999817,75.666389 670.999878,112.999786 
	C616.166687,113.000000 561.333313,113.000000 506.000000,113.000000 
M230.119263,45.548473 
	C230.119263,64.138138 230.119263,82.727798 230.119263,101.446655 
	C236.383469,101.446655 241.966354,101.446655 248.060547,101.446655 
	C248.060547,99.547272 248.059906,97.928680 248.060654,96.310097 
	C248.069595,77.150040 248.001877,57.989483 248.126068,38.830173 
	C248.175125,31.263363 254.640396,26.923399 260.945496,30.032549 
	C265.080902,32.071804 265.956055,35.815182 265.941864,40.075504 
	C265.879700,58.735619 265.907532,77.396034 265.902832,96.056343 
	C265.902405,97.820625 265.902771,99.584915 265.902771,101.410034 
	C272.130798,101.410034 277.697510,101.410034 283.123077,101.410034 
	C283.401306,100.792542 283.649323,100.498749 283.649628,100.204674 
	C283.673065,79.048943 284.139282,57.879681 283.521057,36.742172 
	C283.102966,22.446318 272.591492,12.335969 258.843170,11.302894 
	C251.391068,10.742930 244.830597,13.276883 239.172180,17.814194 
	C229.363983,10.494048 219.162674,8.893701 208.514679,14.532412 
	C198.358459,19.910696 194.354736,29.006821 194.359055,40.172871 
	C194.366470,59.333012 194.344437,78.493164 194.361023,97.653290 
	C194.362122,98.922432 194.584900,100.191383 194.690247,101.308456 
	C200.800735,101.308456 206.517441,101.308456 212.495087,101.308456 
	C212.495087,91.917740 212.483307,82.938950 212.497955,73.960205 
	C212.517776,61.799324 212.414383,49.635609 212.657288,37.478977 
	C212.759827,32.346981 216.548157,29.052280 221.342163,29.097614 
	C226.013504,29.141790 229.405624,32.190552 229.928482,37.085369 
	C230.192673,39.558575 230.068146,42.073311 230.119263,45.548473 
M87.626083,77.499619 
	C87.626083,85.443893 87.626083,93.388161 87.626083,101.328377 
	C93.887337,101.328377 99.590355,101.328377 105.447693,101.328377 
	C105.447693,79.456261 105.675400,57.990810 105.331604,36.534512 
	C105.200645,28.362141 101.296707,21.524345 94.665855,16.485666 
	C84.914177,9.075530 73.668747,9.453540 60.893276,17.592457 
	C60.582657,17.492315 60.215702,17.466875 59.969555,17.281242 
	C50.911469,10.450174 41.124832,9.096149 30.944277,14.167497 
	C20.059242,19.589769 15.989817,29.055073 16.068066,40.848671 
	C16.190716,59.334686 16.083984,77.822182 16.098560,96.309029 
	C16.099932,98.050774 16.273335,99.792389 16.360332,101.412384 
	C22.609093,101.412384 28.193817,101.412384 34.001949,101.412384 
	C34.001949,80.589996 33.976894,60.114159 34.016567,39.638447 
	C34.029171,33.134796 37.364704,29.217564 42.771126,29.090107 
	C48.347023,28.958654 51.868237,32.984348 51.887291,39.763336 
	C51.936443,57.250782 51.911022,74.738441 51.915127,92.226013 
	C51.915821,95.184059 51.915222,98.142105 51.915222,101.313416 
	C58.063873,101.313416 63.750645,101.313416 69.713402,101.313416 
	C69.713402,99.087585 69.713272,97.269363 69.713417,95.451149 
	C69.714821,77.297333 69.645912,59.142948 69.793419,40.990322 
	C69.815590,38.261593 70.234543,35.184456 71.559196,32.900120 
	C73.560051,29.449686 77.208000,28.254406 81.145523,29.472559 
	C85.483429,30.814579 87.577782,34.063057 87.597672,38.526974 
	C87.654076,51.184345 87.622810,63.842102 87.626083,77.499619 
M343.179993,11.559399 
	C309.639374,10.499044 286.453339,42.065468 297.832062,73.297935 
	C305.689301,94.864578 328.212006,107.379768 350.630096,102.636208 
	C373.135406,97.874191 388.737762,76.974556 387.033783,53.872814 
	C385.345459,30.983410 367.173676,13.119561 343.179993,11.559399 
M456.596100,76.164665 
	C467.555939,67.334114 472.180298,55.720722 469.721100,42.072453 
	C467.121246,27.643568 458.576447,16.589884 443.961945,14.134282 
	C429.376404,11.683548 414.260437,12.389847 399.136475,11.701116 
	C399.136475,42.380703 399.136475,71.790100 399.136475,101.398369 
	C405.127197,101.398369 410.841003,101.398369 416.955933,101.398369 
	C416.955933,95.461037 416.955933,89.854080 416.955933,84.319244 
	C435.561432,81.852921 435.751007,81.952354 442.905426,97.772942 
	C443.248474,98.531578 443.404144,99.435387 443.919067,100.039925 
	C444.506348,100.729431 445.387817,101.610512 446.160400,101.629288 
	C451.716614,101.764374 457.277679,101.701591 463.574036,101.701591 
	C460.475433,94.415390 457.606171,88.080193 455.160583,81.585472 
	C454.644623,80.215271 455.681061,78.260490 456.596100,76.164665 
M600.978882,14.293370 
	C588.052551,20.537548 581.649414,32.595184 584.599915,45.136486 
	C587.578308,57.796310 598.513306,65.933525 612.674377,66.020676 
	C618.170410,66.054504 623.675781,65.887894 629.160034,66.156418 
	C634.174866,66.401962 637.471558,70.156425 637.450989,74.999413 
	C637.430847,79.736351 633.975098,83.390526 629.001221,83.745758 
	C626.513672,83.923416 624.006775,83.853737 621.508667,83.855972 
	C610.892273,83.865463 600.275879,83.860001 589.408325,83.860001 
	C589.408325,90.040878 589.408325,95.716583 589.408325,101.371529 
	C590.281128,101.530289 590.762207,101.693581 591.243530,101.694267 
	C603.736633,101.711983 616.230774,101.814156 628.722656,101.690269 
	C643.616760,101.542564 655.393188,89.600906 655.335754,74.924217 
	C655.277527,60.043564 643.776917,48.443069 628.743530,48.179302 
	C623.414734,48.085808 618.082886,48.184986 612.752747,48.150078 
	C605.884460,48.105099 601.883972,44.753258 601.934448,39.146763 
	C601.985168,33.511005 605.962646,30.197863 612.816467,30.176292 
	C624.143555,30.140644 635.470886,30.161505 646.797913,30.128403 
	C648.378540,30.123783 649.958679,29.947987 651.844482,29.832764 
	C651.844482,24.657316 652.053284,19.999584 651.690735,15.386768 
	C651.605164,14.298148 649.608521,12.501429 648.470276,12.485137 
	C635.480713,12.299226 622.485840,12.307613 609.495544,12.490240 
	C606.901184,12.526715 604.320129,13.515709 600.978882,14.293370 
M577.582092,29.064516 
	C577.582092,23.644173 577.582092,18.223829 577.582092,12.650973 
	C556.955322,12.650973 536.903320,12.650973 516.699951,12.650973 
	C516.699951,42.467579 516.699951,71.965256 516.699951,101.389931 
	C537.199158,101.389931 557.268372,101.389931 577.405273,101.389931 
	C577.405273,95.466621 577.405273,89.898895 577.405273,83.794815 
	C562.989197,83.794815 548.916016,83.794815 534.695923,83.794815 
	C534.695923,77.672440 534.695923,72.098068 534.695923,65.856071 
	C544.521667,65.856071 554.046631,65.856071 563.471313,65.856071 
	C563.471313,59.605865 563.471313,54.035576 563.471313,48.064995 
	C553.696106,48.064995 544.276123,48.064995 534.772583,48.064995 
	C534.772583,41.934299 534.772583,36.225075 534.772583,29.800722 
	C549.121887,29.800722 563.064697,29.800722 577.582092,29.064516 
M167.000473,48.181713 
	C157.892639,48.181713 148.784790,48.181713 139.579178,48.181713 
	C139.579178,41.893406 139.579178,36.278240 139.579178,30.145090 
	C153.907410,30.145090 167.983032,30.145090 182.122681,30.145090 
	C182.122681,23.920780 182.122681,18.228226 182.122681,12.633743 
	C161.699371,12.633743 141.781296,12.633743 121.791931,12.633743 
	C121.791931,42.465569 121.791931,71.989281 121.791931,101.495834 
	C142.149353,101.495834 162.078445,101.495834 182.168579,101.495834 
	C182.168579,95.526260 182.168579,89.832596 182.168579,83.727264 
	C167.828705,83.727264 153.890793,83.727264 139.644867,83.727264 
	C139.644867,77.748604 139.644867,72.188591 139.644867,66.063995 
	C149.299545,66.063995 158.708023,66.063995 169.042923,66.063995 
	C168.628830,59.790340 168.254028,54.111660 167.000473,48.181713 
M499.938232,59.500004 
	C499.938232,43.924126 499.938232,28.348249 499.938232,12.671647 
	C493.529694,12.671647 487.957764,12.671647 482.272461,12.671647 
	C482.272461,42.418255 482.272461,71.827873 482.272461,101.337120 
	C488.253540,101.337120 493.962067,101.337120 499.938202,101.337120 
	C499.938202,87.465714 499.938202,73.982864 499.938232,59.500004 
z"/>
<path fill="#F6F6F6" opacity="1.000000" stroke="none" 
	d="
M230.119324,45.058868 
	C230.068146,42.073311 230.192673,39.558575 229.928482,37.085369 
	C229.405624,32.190552 226.013504,29.141790 221.342163,29.097614 
	C216.548157,29.052280 212.759827,32.346981 212.657288,37.478977 
	C212.414383,49.635609 212.517776,61.799324 212.497955,73.960205 
	C212.483307,82.938950 212.495087,91.917740 212.495087,101.308456 
	C206.517441,101.308456 200.800735,101.308456 194.690247,101.308456 
	C194.584900,100.191383 194.362122,98.922432 194.361023,97.653290 
	C194.344437,78.493164 194.366470,59.333012 194.359055,40.172871 
	C194.354736,29.006821 198.358459,19.910696 208.514679,14.532412 
	C219.162674,8.893701 229.363983,10.494048 239.172180,17.814194 
	C244.830597,13.276883 251.391068,10.742930 258.843170,11.302894 
	C272.591492,12.335969 283.102966,22.446318 283.521057,36.742172 
	C284.139282,57.879681 283.673065,79.048943 283.649628,100.204674 
	C283.649323,100.498749 283.401306,100.792542 283.123077,101.410034 
	C277.697510,101.410034 272.130798,101.410034 265.902771,101.410034 
	C265.902771,99.584915 265.902405,97.820625 265.902832,96.056343 
	C265.907532,77.396034 265.879700,58.735619 265.941864,40.075504 
	C265.956055,35.815182 265.080902,32.071804 260.945496,30.032549 
	C254.640396,26.923399 248.175125,31.263363 248.126068,38.830173 
	C248.001877,57.989483 248.069595,77.150040 248.060654,96.310097 
	C248.059906,97.928680 248.060547,99.547272 248.060547,101.446655 
	C241.966354,101.446655 236.383469,101.446655 230.119263,101.446655 
	C230.119263,82.727798 230.119263,64.138138 230.119324,45.058868 
z"/>
<path fill="#F6F6F6" opacity="1.000000" stroke="none" 
	d="
M87.626076,76.999664 
	C87.622810,63.842102 87.654076,51.184345 87.597672,38.526974 
	C87.577782,34.063057 85.483429,30.814579 81.145523,29.472559 
	C77.208000,28.254406 73.560051,29.449686 71.559196,32.900120 
	C70.234543,35.184456 69.815590,38.261593 69.793419,40.990322 
	C69.645912,59.142948 69.714821,77.297333 69.713417,95.451149 
	C69.713272,97.269363 69.713402,99.087585 69.713402,101.313416 
	C63.750645,101.313416 58.063873,101.313416 51.915222,101.313416 
	C51.915222,98.142105 51.915821,95.184059 51.915127,92.226013 
	C51.911022,74.738441 51.936443,57.250782 51.887291,39.763336 
	C51.868237,32.984348 48.347023,28.958654 42.771126,29.090107 
	C37.364704,29.217564 34.029171,33.134796 34.016567,39.638447 
	C33.976894,60.114159 34.001949,80.589996 34.001949,101.412384 
	C28.193817,101.412384 22.609093,101.412384 16.360332,101.412384 
	C16.273335,99.792389 16.099932,98.050774 16.098560,96.309029 
	C16.083984,77.822182 16.190716,59.334686 16.068066,40.848671 
	C15.989817,29.055073 20.059242,19.589769 30.944277,14.167497 
	C41.124832,9.096149 50.911469,10.450174 59.969555,17.281242 
	C60.215702,17.466875 60.582657,17.492315 60.894489,17.588692 
	C73.668747,9.453540 84.914177,9.075530 94.665855,16.485666 
	C101.296707,21.524345 105.200645,28.362141 105.331604,36.534512 
	C105.675400,57.990810 105.447693,79.456261 105.447693,101.328377 
	C99.590355,101.328377 93.887337,101.328377 87.626083,101.328377 
	C87.626083,93.388161 87.626083,85.443893 87.626076,76.999664 
z"/>
<path fill="#F7F7F7" opacity="1.000000" stroke="none" 
	d="
M343.613434,11.586840 
	C367.173676,13.119561 385.345459,30.983410 387.033783,53.872814 
	C388.737762,76.974556 373.135406,97.874191 350.630096,102.636208 
	C328.212006,107.379768 305.689301,94.864578 297.832062,73.297935 
	C286.453339,42.065468 309.639374,10.499044 343.613434,11.586840 
M320.977173,37.463226 
	C310.947540,48.533264 309.840851,62.916843 318.168091,73.972954 
	C326.521912,85.064377 341.389679,88.976334 352.881287,83.106575 
	C366.258636,76.273605 372.407745,62.882038 367.995026,48.824623 
	C362.054657,29.900532 337.842926,21.675182 320.977173,37.463226 
z"/>
<path fill="#F6F6F6" opacity="1.000000" stroke="none" 
	d="
M456.299133,76.369873 
	C455.681061,78.260490 454.644623,80.215271 455.160583,81.585472 
	C457.606171,88.080193 460.475433,94.415390 463.574036,101.701591 
	C457.277679,101.701591 451.716614,101.764374 446.160400,101.629288 
	C445.387817,101.610512 444.506348,100.729431 443.919067,100.039925 
	C443.404144,99.435387 443.248474,98.531578 442.905426,97.772942 
	C435.751007,81.952354 435.561432,81.852921 416.955933,84.319244 
	C416.955933,89.854080 416.955933,95.461037 416.955933,101.398369 
	C410.841003,101.398369 405.127197,101.398369 399.136475,101.398369 
	C399.136475,71.790100 399.136475,42.380703 399.136475,11.701116 
	C414.260437,12.389847 429.376404,11.683548 443.961945,14.134282 
	C458.576447,16.589884 467.121246,27.643568 469.721100,42.072453 
	C472.180298,55.720722 467.555939,67.334114 456.299133,76.369873 
M416.861206,37.582687 
	C416.861206,46.994278 416.861206,56.405869 416.861206,65.926964 
	C423.469696,65.926964 429.298859,66.194542 435.094421,65.867416 
	C445.040375,65.306038 451.825104,58.504776 452.270203,49.128925 
	C452.716919,39.719448 446.672668,31.732586 437.094482,30.540739 
	C430.593475,29.731800 423.910370,30.386244 416.861237,30.386244 
	C416.861237,32.675339 416.861237,34.641064 416.861206,37.582687 
z"/>
<path fill="#F6F6F6" opacity="1.000000" stroke="none" 
	d="
M601.355957,14.179431 
	C604.320129,13.515709 606.901184,12.526715 609.495544,12.490240 
	C622.485840,12.307613 635.480713,12.299226 648.470276,12.485137 
	C649.608521,12.501429 651.605164,14.298148 651.690735,15.386768 
	C652.053284,19.999584 651.844482,24.657316 651.844482,29.832764 
	C649.958679,29.947987 648.378540,30.123783 646.797913,30.128403 
	C635.470886,30.161505 624.143555,30.140644 612.816467,30.176292 
	C605.962646,30.197863 601.985168,33.511005 601.934448,39.146763 
	C601.883972,44.753258 605.884460,48.105099 612.752747,48.150078 
	C618.082886,48.184986 623.414734,48.085808 628.743530,48.179302 
	C643.776917,48.443069 655.277527,60.043564 655.335754,74.924217 
	C655.393188,89.600906 643.616760,101.542564 628.722656,101.690269 
	C616.230774,101.814156 603.736633,101.711983 591.243530,101.694267 
	C590.762207,101.693581 590.281128,101.530289 589.408325,101.371529 
	C589.408325,95.716583 589.408325,90.040878 589.408325,83.860001 
	C600.275879,83.860001 610.892273,83.865463 621.508667,83.855972 
	C624.006775,83.853737 626.513672,83.923416 629.001221,83.745758 
	C633.975098,83.390526 637.430847,79.736351 637.450989,74.999413 
	C637.471558,70.156425 634.174866,66.401962 629.160034,66.156418 
	C623.675781,65.887894 618.170410,66.054504 612.674377,66.020676 
	C598.513306,65.933525 587.578308,57.796310 584.599915,45.136486 
	C581.649414,32.595184 588.052551,20.537548 601.355957,14.179431 
z"/>
<path fill="#F5F5F5" opacity="1.000000" stroke="none" 
	d="
M577.294800,29.432619 
	C563.064697,29.800722 549.121887,29.800722 534.772583,29.800722 
	C534.772583,36.225075 534.772583,41.934299 534.772583,48.064995 
	C544.276123,48.064995 553.696106,48.064995 563.471313,48.064995 
	C563.471313,54.035576 563.471313,59.605865 563.471313,65.856071 
	C554.046631,65.856071 544.521667,65.856071 534.695923,65.856071 
	C534.695923,72.098068 534.695923,77.672440 534.695923,83.794815 
	C548.916016,83.794815 562.989197,83.794815 577.405273,83.794815 
	C577.405273,89.898895 577.405273,95.466621 577.405273,101.389931 
	C557.268372,101.389931 537.199158,101.389931 516.699951,101.389931 
	C516.699951,71.965256 516.699951,42.467579 516.699951,12.650973 
	C536.903320,12.650973 556.955322,12.650973 577.582092,12.650973 
	C577.582092,18.223829 577.582092,23.644173 577.294800,29.432619 
z"/>
<path fill="#F4F4F4" opacity="1.000000" stroke="none" 
	d="
M167.439850,48.307350 
	C168.254028,54.111660 168.628830,59.790340 169.042923,66.063995 
	C158.708023,66.063995 149.299545,66.063995 139.644867,66.063995 
	C139.644867,72.188591 139.644867,77.748604 139.644867,83.727264 
	C153.890793,83.727264 167.828705,83.727264 182.168579,83.727264 
	C182.168579,89.832596 182.168579,95.526260 182.168579,101.495834 
	C162.078445,101.495834 142.149353,101.495834 121.791931,101.495834 
	C121.791931,71.989281 121.791931,42.465569 121.791931,12.633743 
	C141.781296,12.633743 161.699371,12.633743 182.122681,12.633743 
	C182.122681,18.228226 182.122681,23.920780 182.122681,30.145090 
	C167.983032,30.145090 153.907410,30.145090 139.579178,30.145090 
	C139.579178,36.278240 139.579178,41.893406 139.579178,48.181713 
	C148.784790,48.181713 157.892639,48.181713 167.439850,48.307350 
z"/>
<path fill="#F4F4F4" opacity="1.000000" stroke="none" 
	d="
M499.938232,60.000008 
	C499.938202,73.982864 499.938202,87.465714 499.938202,101.337120 
	C493.962067,101.337120 488.253540,101.337120 482.272461,101.337120 
	C482.272461,71.827873 482.272461,42.418255 482.272461,12.671647 
	C487.957764,12.671647 493.529694,12.671647 499.938232,12.671647 
	C499.938232,28.348249 499.938232,43.924126 499.938232,60.000008 
z"/>
<path fill="#080808" opacity="1.000000" stroke="none" 
	d="
M321.233795,37.213905 
	C337.842926,21.675182 362.054657,29.900532 367.995026,48.824623 
	C372.407745,62.882038 366.258636,76.273605 352.881287,83.106575 
	C341.389679,88.976334 326.521912,85.064377 318.168091,73.972954 
	C309.840851,62.916843 310.947540,48.533264 321.233795,37.213905 
z"/>
<path fill="#090909" opacity="1.000000" stroke="none" 
	d="
M416.861206,37.094738 
	C416.861237,34.641064 416.861237,32.675339 416.861237,30.386244 
	C423.910370,30.386244 430.593475,29.731800 437.094482,30.540739 
	C446.672668,31.732586 452.716919,39.719448 452.270203,49.128925 
	C451.825104,58.504776 445.040375,65.306038 435.094421,65.867416 
	C429.298859,66.194542 423.469696,65.926964 416.861206,65.926964 
	C416.861206,56.405869 416.861206,46.994278 416.861206,37.094738 
z"/>
</svg>