<svg version="1.1" id="Layer_1" xmlns="http://www.w3.org/2000/svg" xmlns:xlink="http://www.w3.org/1999/xlink" x="0px" y="0px"
	 width="100%" viewBox="0 0 735 700" enable-background="new 0 0 735 700" xml:space="preserve">
<path fill="#030303" opacity="1.000000" stroke="none" 
	d="
M439.000000,701.000000 
	C294.166656,701.000000 149.833313,700.983093 5.500072,701.094116 
	C1.750595,701.096985 0.904871,700.249207 0.906566,696.499939 
	C1.010648,466.166656 1.010648,235.833328 0.906566,5.500042 
	C0.904871,1.750801 1.750817,0.905015 5.500040,0.906618 
	C247.500000,1.010131 489.500000,1.010131 731.499939,0.906618 
	C735.249207,0.905015 736.095154,1.750801 736.093445,5.500042 
	C735.989380,235.833328 735.989380,466.166656 736.093506,696.499939 
	C736.095154,700.249207 735.249695,701.099487 731.499878,701.094849 
	C634.166748,700.974976 536.833313,701.000000 439.000000,701.000000 
z"/>
<path fill="#F6F6F6" opacity="1.000000" stroke="none" 
	d="
M89.323975,285.740509 
	C90.806793,286.601105 92.145706,287.070465 93.070518,287.966980 
	C95.017502,289.854401 96.437737,289.445221 98.600502,287.985687 
	C116.165916,276.131714 139.550247,287.486420 140.333817,308.750122 
	C141.094330,329.388397 140.508789,350.074982 140.634811,370.739594 
	C140.650864,373.369385 139.480194,373.788849 137.320938,373.741882 
	C133.656448,373.662109 129.972717,373.524170 126.327042,373.802826 
	C123.061790,374.052399 122.537773,372.700012 122.557121,369.764984 
	C122.683411,350.600220 122.574318,331.433990 122.651192,312.268707 
	C122.667603,308.178345 121.842728,304.609344 118.174911,302.335388 
	C113.363647,299.352570 106.763557,301.893890 105.304977,307.381897 
	C104.759384,309.434723 104.758011,311.670135 104.753471,313.822845 
	C104.714447,332.321777 104.646431,350.821533 104.808098,369.319153 
	C104.838234,372.766937 103.980423,374.141846 100.392296,373.784454 
	C96.105766,373.357452 90.537392,375.499115 87.805481,372.942841 
	C85.044785,370.359680 86.966301,364.750977 86.938606,360.478180 
	C86.832764,344.146515 86.926865,327.813629 86.862450,311.481537 
	C86.837158,305.069061 83.286209,301.050598 77.955360,301.084106 
	C72.566849,301.117981 69.044914,305.112640 69.030243,311.491577 
	C68.986176,330.657104 68.890045,349.824371 69.123970,368.987183 
	C69.173782,373.067657 67.944496,374.254395 64.087860,373.783386 
	C59.994019,373.283386 54.625584,375.518341 52.041309,372.925751 
	C49.252701,370.128174 51.143158,364.704651 51.114319,360.440308 
	C51.005009,344.275330 51.072605,328.109161 51.083744,311.943420 
	C51.098495,290.538300 68.819405,278.200134 89.323975,285.740509 
z"/>
<path fill="#F7F7F7" opacity="1.000000" stroke="none" 
	d="
M318.798645,351.999939 
	C318.793793,358.332306 318.608582,364.172363 318.854065,369.994232 
	C318.993622,373.304077 317.558533,373.947021 314.713074,373.786255 
	C311.557129,373.607910 308.359741,373.506470 305.223297,373.811951 
	C301.616455,374.163300 300.795746,372.752808 300.822784,369.334991 
	C300.975525,350.005798 300.872650,330.674713 300.920135,311.344452 
	C300.929871,307.381775 299.745911,304.044067 296.165192,302.137543 
	C293.006348,300.455658 289.738861,300.660309 286.722900,302.807983 
	C283.660583,304.988647 283.076630,308.140900 283.080963,311.622070 
	C283.104858,330.785706 282.965485,349.950623 283.169342,369.112061 
	C283.210022,372.936981 282.120636,373.849457 278.421387,373.823700 
	C265.098358,373.730804 265.094696,373.870392 265.098083,360.790985 
	C265.102264,344.626801 265.125519,328.462555 265.107178,312.298401 
	C265.103363,308.952637 265.097900,305.573090 262.038788,303.219635 
	C259.151520,300.998352 256.045715,300.451202 252.679535,301.924866 
	C249.268784,303.418091 247.599869,306.112457 247.582367,309.794220 
	C247.534058,319.957977 247.515762,330.121948 247.506256,340.285828 
	C247.497055,350.117676 247.407471,359.951385 247.582733,369.780212 
	C247.636078,372.772430 246.883804,374.068359 243.713303,373.768433 
	C239.112946,373.333221 233.221649,375.655396 230.216415,372.854797 
	C227.398026,370.228333 229.407730,364.337524 229.379059,359.893433 
	C229.274765,343.729950 229.294296,327.565094 229.366989,311.401215 
	C229.414551,300.824005 233.426697,292.172638 242.849335,286.871429 
	C252.741547,281.306030 262.647461,281.921875 272.004547,288.383972 
	C273.684082,289.543854 274.637512,289.538910 276.288727,288.391113 
	C285.273438,282.145660 294.864227,281.326202 304.547607,286.415436 
	C314.517822,291.655426 318.747437,300.504730 318.794189,311.506165 
	C318.850861,324.837219 318.801910,338.168671 318.798645,351.999939 
z"/>
<path fill="#F7F7F7" opacity="1.000000" stroke="none" 
	d="
M433.846863,290.323944 
	C433.136230,285.703918 434.383698,284.016754 439.076721,284.204773 
	C449.391754,284.617981 459.741547,284.109344 470.062653,284.436096 
	C485.112366,284.912567 496.180542,292.211060 502.273712,305.860840 
	C508.139893,319.002106 505.879333,331.562195 497.127716,342.944702 
	C496.421204,343.863647 495.669098,344.770569 494.817261,345.551086 
	C488.970337,350.908447 488.947357,350.902405 492.071899,358.370575 
	C493.803162,362.508575 495.517426,366.656097 497.371765,370.739197 
	C498.345490,372.883148 497.973480,373.794159 495.499756,373.756592 
	C491.001862,373.688232 486.501221,373.695007 482.003479,373.771790 
	C479.990234,373.806183 479.099640,372.786163 478.388733,371.041962 
	C476.693146,366.881897 474.685791,362.847382 473.037933,358.669983 
	C472.163483,356.453339 470.876740,355.463654 468.533173,355.822845 
	C468.044098,355.897797 467.535004,355.840149 467.035187,355.847321 
	C462.218567,355.916443 456.017792,354.190002 452.962006,356.544708 
	C449.693939,359.063019 452.110962,365.568878 451.940338,370.323761 
	C451.850983,372.813812 451.335510,373.955017 448.579865,373.780731 
	C445.095215,373.560303 441.561279,373.494934 438.092163,373.822937 
	C434.378571,374.174011 433.755676,372.576965 433.771088,369.267609 
	C433.892853,343.106903 433.843750,316.945435 433.846863,290.323944 
z"/>
<path fill="#F7F7F7" opacity="1.000000" stroke="none" 
	d="
M357.936218,286.983002 
	C392.018799,274.636597 424.541687,298.444580 421.998169,333.491882 
	C420.523743,353.807587 403.952362,371.901886 384.101807,374.870911 
	C361.910706,378.190063 341.426636,366.975098 333.546173,347.191925 
	C323.963196,323.134735 333.679871,298.833435 357.936218,286.983002 
z"/>
<path fill="#F6F6F6" opacity="1.000000" stroke="none" 
	d="
M680.132446,325.863220 
	C689.959351,334.742828 692.822937,345.951782 688.370056,357.242767 
	C684.407959,367.288940 674.214417,373.714172 662.141968,373.733154 
	C650.809326,373.750946 639.475220,373.635101 628.144836,373.794067 
	C624.924805,373.839233 623.562988,373.006897 623.973267,369.587616 
	C624.503052,365.173523 622.089172,359.447754 624.972290,356.618378 
	C627.612061,354.027832 633.238953,355.928375 637.545532,355.870239 
	C645.876892,355.757751 654.211670,355.894440 662.543030,355.782013 
	C668.688904,355.699127 672.436401,352.223328 672.409851,346.931030 
	C672.382935,341.561523 668.692627,338.171570 662.556335,338.066986 
	C656.724915,337.967590 650.886475,338.159088 645.059082,337.973633 
	C630.914185,337.523651 619.385376,325.975189 619.024780,312.059875 
	C618.658936,297.938782 629.254272,285.406006 643.334412,284.655823 
	C656.796387,283.938599 670.321167,284.424561 683.817688,284.306030 
	C685.944702,284.287384 686.938599,285.068542 686.856628,287.188995 
	C686.843750,287.521637 686.852173,287.855896 686.866699,288.188690 
	C687.475708,302.161041 687.476013,302.158783 673.542358,302.161896 
	C664.876221,302.163818 656.209839,302.132294 647.544128,302.193634 
	C640.809570,302.241364 636.811279,305.802246 636.958191,311.465668 
	C637.099060,316.897369 640.979919,320.085815 647.609558,320.139893 
	C652.442139,320.179321 657.279358,320.266968 662.107300,320.109528 
	C668.699158,319.894501 674.593201,321.696198 680.132446,325.863220 
z"/>
<path fill="#F5F5F5" opacity="1.000000" stroke="none" 
	d="
M156.349869,301.002747 
	C156.753113,295.246857 154.066086,288.410675 157.480774,285.154663 
	C160.600845,282.179596 167.325958,284.381989 172.457993,284.346741 
	C185.954102,284.253998 199.452332,284.409210 212.947296,284.255402 
	C216.195969,284.218384 217.632675,284.785278 217.695465,288.515869 
	C217.925186,302.168976 218.069931,302.165802 204.504425,302.165222 
	C195.673218,302.164856 186.840088,302.270721 178.011871,302.108673 
	C175.131317,302.055786 174.188110,303.031738 174.325378,305.831635 
	C174.504684,309.488220 174.498718,313.167694 174.310272,316.823822 
	C174.171219,319.521729 175.266479,320.213409 177.799728,320.167877 
	C185.128876,320.036102 192.465134,320.251129 199.792053,320.068146 
	C202.826874,319.992371 203.752258,320.923828 203.808731,324.015289 
	C204.065186,338.057465 204.164001,338.055054 189.983063,338.052582 
	C186.150650,338.051910 182.312241,338.188385 178.487793,338.014832 
	C175.619751,337.884705 174.398972,338.650696 174.283432,341.846680 
	C173.777512,355.840118 173.673264,355.838440 187.755554,355.835602 
	C196.420120,355.833862 205.087952,355.959137 213.747513,355.747894 
	C216.903854,355.670868 217.872101,356.734100 217.613068,359.744415 
	C217.230347,364.192078 219.436768,369.927887 216.756149,372.785461 
	C214.046112,375.674438 208.262329,373.657806 203.837509,373.698822 
	C189.842056,373.828522 175.841125,373.572021 161.850159,373.854156 
	C157.588806,373.940094 156.177628,373.090210 156.232742,368.484619 
	C156.499817,346.159821 156.351196,323.830078 156.349869,301.002747 
z"/>
<path fill="#F5F5F5" opacity="1.000000" stroke="none" 
	d="
M598.847168,334.541687 
	C599.247375,337.959930 597.442566,338.115509 595.174866,338.088898 
	C588.010742,338.004730 580.841553,338.188477 573.681519,337.997986 
	C570.542786,337.914490 569.377014,338.699341 569.325745,342.115784 
	C569.119629,355.839966 568.991943,355.839813 582.524597,355.837952 
	C591.356628,355.836761 600.190002,355.914001 609.019897,355.775055 
	C611.775696,355.731689 612.984497,356.496094 612.821045,359.427063 
	C612.617249,363.082245 612.610535,366.764465 612.800537,370.420349 
	C612.942383,373.149506 611.800171,373.795227 609.289429,373.784576 
	C591.125366,373.707611 572.960510,373.681274 554.796936,373.800934 
	C551.802734,373.820648 551.213135,372.649811 551.220520,369.975891 
	C551.295105,342.812958 551.319702,315.649475 551.209229,288.486816 
	C551.195862,285.193909 552.202881,284.236176 555.475403,284.262573 
	C573.138672,284.404938 590.804077,284.390045 608.467651,284.267456 
	C611.576294,284.245911 613.125183,284.882294 612.832336,288.369568 
	C612.554321,291.679688 612.540039,295.048370 612.812744,298.358093 
	C613.080017,301.600922 611.719604,302.246765 608.789551,302.213837 
	C597.125916,302.082794 585.456665,302.326569 573.796631,302.084412 
	C570.146851,302.008575 569.138245,303.249420 569.361938,306.621979 
	C569.647400,310.924652 568.019348,316.548523 570.173340,319.204773 
	C572.430420,321.988159 578.278076,319.954498 582.551208,320.097229 
	C586.712463,320.236176 590.892395,320.306091 595.044678,320.067902 
	C598.204163,319.886658 599.114624,321.092529 598.900391,324.095825 
	C598.663757,327.411896 598.847168,330.757965 598.847168,334.541687 
z"/>
<path fill="#F5F5F5" opacity="1.000000" stroke="none" 
	d="
M534.974609,297.034637 
	C534.973816,321.320831 534.864136,345.114716 535.078064,368.905731 
	C535.114746,372.976501 533.919922,374.214630 530.061829,373.777130 
	C525.827454,373.296906 520.140747,375.594208 517.702209,372.705414 
	C515.620056,370.238831 517.022888,364.764618 517.018738,360.620636 
	C516.994934,336.827698 517.101746,313.034119 516.923462,289.242523 
	C516.894226,285.347046 517.852722,283.617554 521.856567,284.322083 
	C522.179199,284.378845 522.520752,284.328552 522.853516,284.327850 
	C534.975281,284.301544 534.975281,284.301544 534.974609,297.034637 
z"/>
<path fill="#090909" opacity="1.000000" stroke="none" 
	d="
M451.872467,335.797028 
	C451.862213,325.484680 451.940582,315.653717 451.809479,305.825531 
	C451.772980,303.088104 452.455811,301.854553 455.422607,302.099609 
	C461.864258,302.631714 468.411865,301.211609 474.787354,303.136963 
	C482.551361,305.481567 487.643402,312.710236 487.301575,320.921478 
	C486.955811,329.226776 481.415466,335.881073 473.257111,337.422150 
	C466.661560,338.668060 459.965393,337.807709 453.315430,337.940582 
	C452.252319,337.961853 451.981354,337.161285 451.872467,335.797028 
z"/>
<path fill="#080808" opacity="1.000000" stroke="none" 
	d="
M398.148743,311.902893 
	C407.975861,325.342438 405.655182,342.449310 392.978882,352.144592 
	C380.686249,361.546417 363.268036,358.968536 353.437958,346.292511 
	C343.895508,333.987427 346.295898,317.153351 359.068878,306.802307 
	C370.603851,297.454529 387.628937,299.577637 398.148743,311.902893 
z"/>
</svg>